<?xml version="1.0" encoding="UTF-8"?>
<!DOCTYPE svg PUBLIC "-//W3C//DTD SVG 1.1//EN" "http://www.w3.org/Graphics/SVG/1.1/DTD/svg11.dtd">
<svg xmlns="http://www.w3.org/2000/svg" version="1.1" width="800px" height="600px" style="shape-rendering:geometricPrecision; text-rendering:geometricPrecision; image-rendering:optimizeQuality; fill-rule:evenodd; clip-rule:evenodd" xmlns:xlink="http://www.w3.org/1999/xlink">
<g><path style="opacity:0.992" fill="#0e0027" d="M 374.5,83.5 C 454.547,78.6229 519.38,107.29 569,169.5C 610.538,228.91 621.205,293.577 601,363.5C 574.161,440.171 521.327,488.338 442.5,508C 353.012,523.804 279.845,496.637 223,426.5C 181.462,367.09 170.795,302.423 191,232.5C 214.833,163.333 261.333,116.833 330.5,93C 345.069,88.7217 359.736,85.555 374.5,83.5 Z"/></g>
<g><path style="opacity:1" fill="#ac11e2" d="M 431.5,175.5 C 462.329,174.502 493.329,174.169 524.5,174.5C 524.828,186.678 524.495,198.678 523.5,210.5C 523.5,198.833 523.5,187.167 523.5,175.5C 492.833,175.5 462.167,175.5 431.5,175.5 Z"/></g>
<g><path style="opacity:1" fill="#8229d8" d="M 310.5,210.5 C 309.502,234.994 309.169,259.661 309.5,284.5C 306.538,287.964 303.371,291.297 300,294.5C 299.172,310.339 299.339,326.005 300.5,341.5C 292.513,349.485 284.18,357.151 275.5,364.5C 274.5,301.17 274.167,237.837 274.5,174.5C 304.167,174.5 333.833,174.5 363.5,174.5C 363.667,187.171 363.5,199.838 363,212.5C 351.633,223.535 339.966,234.202 328,244.5C 327.5,233.172 327.333,221.838 327.5,210.5C 321.833,210.5 316.167,210.5 310.5,210.5 Z"/></g>
<g><path style="opacity:1" fill="#cd0efd" d="M 431.5,175.5 C 462.167,175.5 492.833,175.5 523.5,175.5C 523.5,187.167 523.5,198.833 523.5,210.5C 493.456,238.878 462.79,266.545 431.5,293.5C 420.309,288.072 409.309,282.405 398.5,276.5C 422.141,255.195 445.808,233.862 469.5,212.5C 470.289,212.217 470.956,211.717 471.5,211C 462.324,210.176 453.324,210.343 444.5,211.5C 436.167,218.833 427.833,226.167 419.5,233.5C 418.504,218.342 418.17,203.009 418.5,187.5C 422.222,182.811 426.555,178.811 431.5,175.5 Z"/></g>
<g><path style="opacity:1" fill="#bc14f4" d="M 418.5,187.5 C 418.17,203.009 418.504,218.342 419.5,233.5C 405.158,247.174 390.492,260.508 375.5,273.5C 374.504,258.009 374.17,242.342 374.5,226.5C 389.167,213.5 403.833,200.5 418.5,187.5 Z"/></g>
<g><path style="opacity:1" fill="#250346" d="M 444.5,211.5 C 453.324,210.343 462.324,210.176 471.5,211C 470.956,211.717 470.289,212.217 469.5,212.5C 461.35,211.507 453.017,211.174 444.5,211.5 Z"/></g>
<g><path style="opacity:1" fill="#7022bb" d="M 310.5,210.5 C 310.169,235.006 310.502,259.339 311.5,283.5C 311.158,284.338 310.492,284.672 309.5,284.5C 309.169,259.661 309.502,234.994 310.5,210.5 Z"/></g>
<g><path style="opacity:1" fill="#ab1aec" d="M 374.5,226.5 C 374.17,242.342 374.504,258.009 375.5,273.5C 368.492,280.508 361.158,287.174 353.5,293.5C 352.504,278.009 352.17,262.342 352.5,246.5C 359.508,239.492 366.842,232.826 374.5,226.5 Z"/></g>
<g><path style="opacity:1" fill="#9f1ee6" d="M 352.5,246.5 C 352.17,262.342 352.504,278.009 353.5,293.5C 345.493,301.507 337.159,309.173 328.5,316.5C 327.504,301.009 327.17,285.342 327.5,269.5C 335.507,261.493 343.841,253.827 352.5,246.5 Z"/></g>
<g><path style="opacity:1" fill="#d00ef1" d="M 398.5,276.5 C 409.309,282.405 420.309,288.072 431.5,293.5C 429.431,296.573 426.764,298.906 423.5,300.5C 412.134,295.821 401.468,290.155 391.5,283.5C 393.5,280.833 395.833,278.5 398.5,276.5 Z"/></g>
<g><path style="opacity:1" fill="#d40ee4" d="M 391.5,283.5 C 401.468,290.155 412.134,295.821 423.5,300.5C 421.167,303.5 418.5,306.167 415.5,308.5C 404.162,303.164 392.829,297.831 381.5,292.5C 384.211,288.788 387.544,285.788 391.5,283.5 Z"/></g>
<g><path style="opacity:1" fill="#9323e0" d="M 327.5,269.5 C 327.17,285.342 327.504,301.009 328.5,316.5C 319.192,324.805 309.859,333.138 300.5,341.5C 299.339,326.005 299.172,310.339 300,294.5C 303.371,291.297 306.538,287.964 309.5,284.5C 310.492,284.672 311.158,284.338 311.5,283.5C 316.512,278.49 321.845,273.823 327.5,269.5 Z"/></g>
<g><path style="opacity:1" fill="#d80ed7" d="M 381.5,292.5 C 392.829,297.831 404.162,303.164 415.5,308.5C 412.526,311.138 409.526,313.805 406.5,316.5C 395.691,310.595 384.691,304.928 373.5,299.5C 375.549,296.45 378.216,294.117 381.5,292.5 Z"/></g>
<g><path style="opacity:1" fill="#db0ecb" d="M 373.5,299.5 C 384.691,304.928 395.691,310.595 406.5,316.5C 403.526,319.138 400.526,321.805 397.5,324.5C 386.973,318.069 375.973,312.402 364.5,307.5C 366.895,304.139 369.895,301.472 373.5,299.5 Z"/></g>
<g><path style="opacity:1" fill="#e00ebf" d="M 364.5,307.5 C 375.973,312.402 386.973,318.069 397.5,324.5C 395.249,327.295 392.582,329.628 389.5,331.5C 378.691,325.595 367.691,319.928 356.5,314.5C 359.141,312.196 361.808,309.862 364.5,307.5 Z"/></g>
<g><path style="opacity:1" fill="#e30eb3" d="M 356.5,314.5 C 367.691,319.928 378.691,325.595 389.5,331.5C 387.12,334.881 384.12,337.547 380.5,339.5C 369.964,332.567 358.631,327.233 346.5,323.5C 349.808,320.529 353.141,317.529 356.5,314.5 Z"/></g>
<g><path style="opacity:1" fill="#e90ea1" d="M 346.5,323.5 C 358.631,327.233 369.964,332.567 380.5,339.5C 376.778,344.189 372.445,348.189 367.5,351.5C 356.466,345.651 345.133,340.318 333.5,335.5C 337.807,331.528 342.141,327.528 346.5,323.5 Z"/></g>
<g><path style="opacity:1" fill="#fd515b" d="M 430.5,339.5 C 429.504,354.658 429.17,369.991 429.5,385.5C 425.88,383.547 422.88,380.881 420.5,377.5C 418.54,362.074 417.873,346.407 418.5,330.5C 418.897,329.475 419.563,329.308 420.5,330C 423.729,333.399 427.062,336.565 430.5,339.5 Z"/></g>
<g><path style="opacity:1" fill="#fd435c" d="M 418.5,330.5 C 417.873,346.407 418.54,362.074 420.5,377.5C 415.953,379.706 411.953,382.706 408.5,386.5C 407.504,371.342 407.17,356.009 407.5,340.5C 410.543,336.456 414.209,333.123 418.5,330.5 Z"/></g>
<g><path style="opacity:1" fill="#ee0e91" d="M 333.5,335.5 C 345.133,340.318 356.466,345.651 367.5,351.5C 363.526,355.138 359.526,358.805 355.5,362.5C 355.631,361.624 355.298,360.957 354.5,360.5C 344.042,354.936 333.375,349.936 322.5,345.5C 325.936,341.943 329.603,338.609 333.5,335.5 Z"/></g>
<g><path style="opacity:1" fill="#fe5c59" d="M 430.5,339.5 C 434.192,342.862 437.859,346.195 441.5,349.5C 440.502,373.994 440.169,398.661 440.5,423.5C 436.833,423.5 433.167,423.5 429.5,423.5C 429.5,412.833 429.5,402.167 429.5,391.5C 430.141,390.518 430.807,389.518 431.5,388.5C 430.807,387.482 430.141,386.482 429.5,385.5C 429.17,369.991 429.504,354.658 430.5,339.5 Z"/></g>
<g><path style="opacity:1" fill="#f30e81" d="M 322.5,345.5 C 333.375,349.936 344.042,354.936 354.5,360.5C 355.298,360.957 355.631,361.624 355.5,362.5C 352.859,364.804 350.192,367.138 347.5,369.5C 336.722,363.61 325.722,357.943 314.5,352.5C 317.126,350.177 319.793,347.843 322.5,345.5 Z"/></g>
<g><path style="opacity:1" fill="#fe6658" d="M 441.5,349.5 C 444.167,351.5 446.5,353.833 448.5,356.5C 448.5,378.833 448.5,401.167 448.5,423.5C 445.833,423.5 443.167,423.5 440.5,423.5C 440.169,398.661 440.502,373.994 441.5,349.5 Z"/></g>
<g><path style="opacity:1" fill="#fe2f5e" d="M 407.5,340.5 C 407.17,356.009 407.504,371.342 408.5,386.5C 401.492,393.508 394.158,400.174 386.5,406.5C 385.504,391.342 385.17,376.009 385.5,360.5C 392.508,353.492 399.842,346.826 407.5,340.5 Z"/></g>
<g><path style="opacity:1" fill="#f80e73" d="M 314.5,352.5 C 325.722,357.943 336.722,363.61 347.5,369.5C 343.526,373.138 339.526,376.805 335.5,380.5C 324.978,374.071 313.978,368.405 302.5,363.5C 306.474,359.862 310.474,356.195 314.5,352.5 Z"/></g>
<g><path style="opacity:1" fill="#fe7357" d="M 448.5,356.5 C 454.489,361.157 460.156,366.157 465.5,371.5C 464.503,388.659 464.17,405.992 464.5,423.5C 459.167,423.5 453.833,423.5 448.5,423.5C 448.5,401.167 448.5,378.833 448.5,356.5 Z"/></g>
<g><path style="opacity:1" fill="#fd1062" d="M 385.5,360.5 C 385.17,376.009 385.504,391.342 386.5,406.5C 380.363,412.467 374.03,418.301 367.5,424C 336.502,424.5 305.502,424.667 274.5,424.5C 274.168,412.149 274.501,399.815 275.5,387.5C 284.52,379.478 293.52,371.478 302.5,363.5C 313.978,368.405 324.978,374.071 335.5,380.5C 332.729,382.767 330.062,385.267 327.5,388C 336.5,388.667 345.5,388.667 354.5,388C 364.427,378.231 374.76,369.065 385.5,360.5 Z"/></g>
<g><path style="opacity:1" fill="#fe8155" d="M 465.5,371.5 C 469.775,374.142 473.442,377.475 476.5,381.5C 475.504,395.323 475.171,409.323 475.5,423.5C 471.833,423.5 468.167,423.5 464.5,423.5C 464.17,405.992 464.503,388.659 465.5,371.5 Z"/></g>
<g><path style="opacity:1" fill="#fe8d54" d="M 476.5,381.5 C 480.775,384.142 484.442,387.475 487.5,391.5C 486.506,401.987 486.172,412.654 486.5,423.5C 482.833,423.5 479.167,423.5 475.5,423.5C 475.171,409.323 475.504,395.323 476.5,381.5 Z"/></g>
<g><path style="opacity:1" fill="#fe4f5b" d="M 429.5,391.5 C 429.5,402.167 429.5,412.833 429.5,423.5C 425.833,423.5 422.167,423.5 418.5,423.5C 418.5,416.167 418.5,408.833 418.5,401.5C 421.563,397.434 425.229,394.101 429.5,391.5 Z"/></g>
<g><path style="opacity:1" fill="#fe9d52" d="M 487.5,391.5 C 493.489,396.157 499.156,401.157 504.5,406.5C 503.511,411.975 503.178,417.642 503.5,423.5C 497.833,423.5 492.167,423.5 486.5,423.5C 486.172,412.654 486.506,401.987 487.5,391.5 Z"/></g>
<g><path style="opacity:1" fill="#fc425d" d="M 418.5,401.5 C 418.5,408.833 418.5,416.167 418.5,423.5C 410.316,423.826 402.316,423.492 394.5,422.5C 401.902,414.761 409.902,407.761 418.5,401.5 Z"/></g>
<g><path style="opacity:1" fill="#fdaf51" d="M 504.5,406.5 C 510.797,411.462 516.797,416.795 522.5,422.5C 516.355,423.49 510.022,423.823 503.5,423.5C 503.178,417.642 503.511,411.975 504.5,406.5 Z"/></g>
<g><path style="opacity:1" fill="#d8466f" d="M 394.5,422.5 C 402.316,423.492 410.316,423.826 418.5,423.5C 422.167,423.5 425.833,423.5 429.5,423.5C 433.167,423.5 436.833,423.5 440.5,423.5C 443.167,423.5 445.833,423.5 448.5,423.5C 448.5,423.833 448.5,424.167 448.5,424.5C 429.83,424.667 411.164,424.5 392.5,424C 393.044,423.283 393.711,422.783 394.5,422.5 Z"/></g>
<g><path style="opacity:1" fill="#d87a69" d="M 522.5,422.5 C 523.289,422.783 523.956,423.283 524.5,424C 499.169,424.5 473.836,424.667 448.5,424.5C 448.5,424.167 448.5,423.833 448.5,423.5C 453.833,423.5 459.167,423.5 464.5,423.5C 468.167,423.5 471.833,423.5 475.5,423.5C 479.167,423.5 482.833,423.5 486.5,423.5C 492.167,423.5 497.833,423.5 503.5,423.5C 510.022,423.823 516.355,423.49 522.5,422.5 Z"/></g>
</svg>
